Coordinates
version=1
nRows=29
nColumns=34
inDegrees=no

Units are S.I. units (second, meters, Newtons, ...)
If the header above contains a line with 'inDegrees', this indicates whether rotational values are in degrees (yes) or radians (no).

endheader
time	pelvis_tilt	pelvis_list	pelvis_rotation	pelvis_tx	pelvis_ty	pelvis_tz	hip_flexion_r	hip_adduction_r	hip_rotation_r	knee_angle_r	ankle_angle_r	subtalar_angle_r	mtp_angle_r	hip_flexion_l	hip_adduction_l	hip_rotation_l	knee_angle_l	ankle_angle_l	subtalar_angle_l	mtp_angle_l	lumbar_extension	lumbar_bending	lumbar_rotation	arm_flex_r	arm_add_r	arm_rot_r	elbow_flex_r	pro_sup_r	arm_flex_l	arm_add_l	arm_rot_l	elbow_flex_l	pro_sup_l
0	0.0175475	0.0411446	0.105432	-0.160626	0.916633	-0.302007	0.483999	-0.166144	-0.442065	0.204013	0.217135	0.081772	0	-0.307148	-0.0553686	-0.132288	0.352046	0.295707	0.198235	0	-0.130986	0.00215483	-0.211596	-0.323777	-0.0745309	-0.4584	0.483713	2.09	0.137448	-0.191194	-0.0717589	0.960624	2.09
0.01	0.0118618	0.0386608	0.102032	-0.146705	0.916869	-0.299104	0.494447	-0.165414	-0.435589	0.234439	0.197515	0.0786334	0	-0.288974	-0.0635304	-0.13334	0.39369	0.255995	0.185263	0	-0.121955	0.00374498	-0.204364	-0.316547	-0.0768554	-0.458408	0.473558	2.09	0.126899	-0.184498	-0.0777043	0.94042	2.09
0.02	0.00871513	0.0326854	0.0985087	-0.131483	0.917206	-0.295922	0.500763	-0.160853	-0.432154	0.265866	0.182671	0.0757325	0	-0.275786	-0.0760934	-0.135856	0.432233	0.21187	0.170428	0	-0.114667	0.00972857	-0.197363	-0.312438	-0.0793607	-0.45963	0.467482	2.09	0.111884	-0.177511	-0.0859935	0.923924	2.09
0.03	0.00764599	0.0228733	0.0935924	-0.116257	0.918077	-0.292779	0.500234	-0.149974	-0.428978	0.288723	0.165769	0.0697092	0	-0.261909	-0.0927547	-0.1412	0.474243	0.163099	0.151207	0	-0.110689	0.0210915	-0.18928	-0.307161	-0.0833338	-0.460639	0.463701	2.09	0.0965022	-0.168769	-0.0966063	0.906974	2.09
0.04	0.00682633	0.0114354	0.0884466	-0.100863	0.918943	-0.289391	0.499597	-0.137406	-0.426426	0.313459	0.153986	0.062145	0	-0.242669	-0.112849	-0.149145	0.525047	0.110478	0.127321	0	-0.106813	0.0339318	-0.180577	-0.302733	-0.0870212	-0.462253	0.463448	2.09	0.0799932	-0.15997	-0.10833	0.890304	2.09
0.05	0.00934751	-0.00190635	0.081396	-0.0855458	0.920492	-0.285876	0.489996	-0.119137	-0.421407	0.327859	0.14266	0.0510333	0	-0.2274	-0.134059	-0.15693	0.572557	0.0494358	0.091952	0	-0.107196	0.0492634	-0.169631	-0.297099	-0.0913476	-0.463596	0.465324	2.09	0.0641606	-0.150278	-0.121133	0.871521	2.09
0.06	0.00528303	-0.00773651	0.0714083	-0.0706401	0.92122	-0.282153	0.495397	-0.111294	-0.415189	0.357778	0.144068	0.0486205	0	-0.198861	-0.147044	-0.164513	0.629663	-0.0162363	0.0452326	0	-0.101251	0.0549881	-0.155816	-0.292905	-0.0941643	-0.465138	0.47097	2.09	0.0474018	-0.142164	-0.134145	0.853634	2.09
0.07	0.00288918	-0.0151124	0.061542	-0.0559465	0.922259	-0.278408	0.494433	-0.10004	-0.4105	0.379742	0.149647	0.0485587	0	-0.169595	-0.162289	-0.170991	0.687776	-0.0848172	-0.00963121	0	-0.0974497	0.0625052	-0.141493	-0.288155	-0.0974292	-0.4654	0.478818	2.09	0.0314846	-0.13386	-0.147792	0.834235	2.09
0.08	0.00229516	-0.0255936	0.0510737	-0.0417767	0.923811	-0.274852	0.486667	-0.0829546	-0.404854	0.391519	0.154716	0.0470903	0	-0.140109	-0.180683	-0.176448	0.745731	-0.151502	-0.0695619	0	-0.0967927	0.0741089	-0.125862	-0.281617	-0.102426	-0.463419	0.487954	2.09	0.0178534	-0.124311	-0.162184	0.81192	2.09
0.09	0.00247792	-0.0344472	0.041836	-0.0278063	0.925439	-0.271335	0.477185	-0.0673653	-0.398503	0.402379	0.163943	0.0454359	0	-0.111668	-0.197233	-0.178954	0.799579	-0.208673	-0.128414	0	-0.0971843	0.0835031	-0.111092	-0.274833	-0.107243	-0.459392	0.498499	2.09	0.0049832	-0.115774	-0.177034	0.788836	2.09
0.1	0.00495024	-0.0468015	0.033765	-0.0140853	0.927433	-0.267991	0.459885	-0.046019	-0.39151	0.402763	0.171916	0.0409503	0	-0.0845124	-0.217559	-0.179052	0.851359	-0.250863	-0.182239	0	-0.10043	0.0969718	-0.0965959	-0.26717	-0.11351	-0.452882	0.510171	2.09	-0.00609176	-0.106724	-0.192411	0.763513	2.09
0.11	0.00233903	-0.0488771	0.0237718	-0.000788331	0.928627	-0.264663	0.45579	-0.0378854	-0.381318	0.417908	0.187619	0.0403934	0	-0.052456	-0.224278	-0.176999	0.898649	-0.277151	-0.233848	0	-0.0984961	0.0981684	-0.0808688	-0.2603	-0.118198	-0.445849	0.523822	2.09	-0.0172761	-0.100185	-0.207953	0.738964	2.09
0.12	0.00383141	-0.0516234	0.0162579	0.0121877	0.930592	-0.261709	0.441658	-0.0280913	-0.372367	0.422381	0.200584	0.0396415	0	-0.0245803	-0.231569	-0.173587	0.940105	-0.283494	-0.270852	0	-0.101625	0.100437	-0.0674412	-0.250844	-0.124428	-0.433971	0.53586	2.09	-0.0260909	-0.0938909	-0.223789	0.711506	2.09
0.13	0.00369425	-0.0544435	0.0114261	0.0249197	0.932304	-0.259114	0.429116	-0.0197667	-0.365881	0.42673	0.21324	0.0383716	0	0.00833683	-0.236939	-0.163962	0.980276	-0.279348	-0.304469	0	-0.1026	0.102896	-0.0564107	-0.241643	-0.13118	-0.421478	0.54946	2.09	-0.0343694	-0.0881402	-0.239631	0.683332	2.09
0.14	0.00536998	-0.0559637	0.00914574	0.0374551	0.934411	-0.256862	0.412373	-0.0135239	-0.361682	0.427021	0.224	0.0379669	0	0.039507	-0.23956	-0.152733	1.01361	-0.266233	-0.328095	0	-0.105552	0.104033	-0.047973	-0.230957	-0.138269	-0.407628	0.5623	2.09	-0.0415967	-0.0833928	-0.255125	0.65388	2.09
0.15	0.00711801	-0.0550864	0.008622	0.0497896	0.936643	-0.254883	0.39525	-0.0109949	-0.359671	0.426803	0.233657	0.0390692	0	0.0705947	-0.238061	-0.140976	1.04038	-0.247884	-0.342781	0	-0.108485	0.102518	-0.0416124	-0.219208	-0.145293	-0.393126	0.574565	2.09	-0.0486011	-0.0799101	-0.270191	0.62447	2.09
0.16	0.00912147	-0.0522399	0.00948328	0.0619681	0.939055	-0.253144	0.377081	-0.0114462	-0.359898	0.425204	0.241994	0.042113	0	0.101255	-0.233189	-0.129899	1.06086	-0.227094	-0.349096	0	-0.111608	0.0988824	-0.0370449	-0.206286	-0.152217	-0.378426	0.586001	2.09	-0.0557137	-0.0775357	-0.284833	0.59572	2.09
0.17	0.00911783	-0.0498227	0.0120412	0.0739751	0.941285	-0.251678	0.360483	-0.0124435	-0.363032	0.422416	0.249049	0.0462284	0	0.134756	-0.226734	-0.117179	1.07691	-0.205118	-0.351007	0	-0.112239	0.0959631	-0.0344756	-0.193014	-0.159456	-0.364073	0.597555	2.09	-0.0636777	-0.0756123	-0.299394	0.568743	2.09
0.18	0.00955581	-0.0455909	0.0148738	0.085894	0.94371	-0.250329	0.342602	-0.0155378	-0.367011	0.418134	0.255448	0.0520572	0	0.165974	-0.21787	-0.10819	1.08571	-0.179808	-0.344963	0	-0.113325	0.0910246	-0.0328434	-0.178457	-0.166383	-0.349934	0.607949	2.09	-0.0722753	-0.0746052	-0.314007	0.543654	2.09
0.19	0.00902367	-0.0426963	0.0174742	0.0978401	0.945975	-0.249039	0.324901	-0.0170456	-0.371683	0.412214	0.261687	0.0587007	0	0.197607	-0.20968	-0.100597	1.09017	-0.150817	-0.333782	0	-0.112887	0.087621	-0.0313587	-0.163856	-0.173636	-0.336396	0.618601	2.09	-0.0823078	-0.0737108	-0.329119	0.521371	2.09
0.2	0.00853557	-0.0390846	0.0193445	0.109727	0.948282	-0.247748	0.30651	-0.0188738	-0.375746	0.404845	0.268021	0.0661256	0	0.227082	-0.200971	-0.0972685	1.08828	-0.116971	-0.31549	0	-0.11245	0.0833172	-0.0298362	-0.148319	-0.18063	-0.323383	0.62855	2.09	-0.0932182	-0.0734091	-0.344581	0.501541	2.09
0.21	0.00835621	-0.0365095	0.0195352	0.121723	0.950504	-0.246356	0.286993	-0.018865	-0.379036	0.395897	0.275029	0.0748449	0	0.254011	-0.19392	-0.0976762	1.08105	-0.0777222	-0.289752	0	-0.111946	0.0800078	-0.0271619	-0.132612	-0.187764	-0.310908	0.638691	2.09	-0.105412	-0.0732231	-0.360769	0.484418	2.09
0.22	0.00776118	-0.0328151	0.0189792	0.133525	0.952673	-0.244955	0.267911	-0.0199561	-0.382155	0.386442	0.282599	0.0850447	0	0.279407	-0.186187	-0.101876	1.06793	-0.0372149	-0.259185	0	-0.111257	0.0753065	-0.0245181	-0.115754	-0.194232	-0.299821	0.648325	2.09	-0.117935	-0.0735069	-0.378023	0.469427	2.09
0.23	0.00635824	-0.0305276	0.01708	0.145305	0.95458	-0.243479	0.249467	-0.0184155	-0.381704	0.375524	0.288459	0.0905016	0	0.304464	-0.180106	-0.107907	1.05078	-0.000917994	-0.230748	0	-0.109446	0.0721054	-0.0206616	-0.0990669	-0.200785	-0.289795	0.658651	2.09	-0.130926	-0.0745652	-0.391171	0.455012	2.09
0.24	0.00503846	-0.0286937	0.0139841	0.157034	0.956333	-0.241935	0.230835	-0.0161262	-0.380595	0.363957	0.294319	0.0963533	0	0.327477	-0.175475	-0.117031	1.02895	0.0327948	-0.200592	0	-0.107728	0.0692682	-0.0160978	-0.0818741	-0.206991	-0.281088	0.669048	2.09	-0.144179	-0.075682	-0.405039	0.442219	2.09
0.25	0.00392271	-0.0259611	0.0102532	0.168598	0.958014	-0.240377	0.2122	-0.0148363	-0.379023	0.352198	0.299924	0.102311	0	0.34762	-0.170695	-0.129679	1.00111	0.0617805	-0.170401	0	-0.106569	0.0653235	-0.0113393	-0.0637602	-0.212559	-0.273307	0.678783	2.09	-0.156977	-0.0773759	-0.417804	0.430077	2.09
0.26	0.00272693	-0.024083	0.00591101	0.180125	0.959453	-0.238827	0.193729	-0.012676	-0.377165	0.340186	0.30531	0.107953	0	0.36643	-0.167168	-0.143605	0.969585	0.0834667	-0.145095	0	-0.105307	0.0623354	-0.00615026	-0.0455102	-0.218043	-0.266254	0.688591	2.09	-0.169704	-0.0791218	-0.429508	0.418793	2.09
0.27	0.00176658	-0.0224624	0.00119723	0.191583	0.960698	-0.237307	0.175209	-0.0104632	-0.375299	0.328229	0.310699	0.113741	0	0.383121	-0.164615	-0.159495	0.934039	0.100141	-0.121478	0	-0.104467	0.0596225	-0.000821745	-0.0268537	-0.223407	-0.259211	0.698017	2.09	-0.18211	-0.0808267	-0.441094	0.408462	2.09
0.28	0.000916883	-0.0210296	-0.00361603	0.202978	0.961716	-0.23586	0.156903	-0.0084022	-0.373588	0.316675	0.3162	0.119562	0	0.39798	-0.162519	-0.176491	0.894771	0.11128	-0.101074	0	-0.103921	0.0571519	0.00442367	-0.00787903	-0.228731	-0.251874	0.707048	2.09	-0.194154	-0.0824092	-0.452602	0.399079	2.09
